<svg width="24" height="24" viewBox="0 0 24 24" xmlns="http://www.w3.org/2000/svg">
    <path d="M21.448 4.296a8.269 8.269 0 0 1-2.607.978A4.124 4.124 0 0 0 15.846 4c-2.264 0-4.102 1.809-4.102 4.04 0 .316.036.623.106.919a11.706 11.706 0 0 1-8.458-4.222 3.985 3.985 0 0 0-.555 2.033c0 1.4.724 2.637 1.826 3.362a4.155 4.155 0 0 1-1.86-.504v.05c0 1.957 1.414 3.59 3.293 3.96a4.16 4.16 0 0 1-1.854.07 4.097 4.097 0 0 0 3.833 2.805 8.315 8.315 0 0 1-5.096 1.73A8.56 8.56 0 0 1 2 18.186 11.764 11.764 0 0 0 8.29 20c7.548 0 11.674-6.154 11.674-11.492 0-.176-.003-.351-.01-.523A8.227 8.227 0 0 0 22 5.895a8.296 8.296 0 0 1-2.356.635 4.06 4.06 0 0 0 1.804-2.234" fill="#002B45" fill-rule="evenodd"/>
</svg>
