<svg id="Grupo_41" data-name="Grupo 41" xmlns="http://www.w3.org/2000/svg" xmlns:xlink="http://www.w3.org/1999/xlink" viewBox="0 0 56.48 86.29"><defs><style>.cls-1{fill:none;}.cls-2{clip-path:url(#clip-path);}.cls-3{fill:#0073bb;}.cls-4{fill:#088eb6;}.cls-5{fill:#7f438b;}.cls-6{fill:#911f78;}.cls-7{fill:#82217c;}.cls-8{fill:#0081c9;}.cls-9{fill:#5b2c85;}.cls-10{fill:#83cce3;}.cls-11{fill:#c33187;}.cls-12{fill:#f29a00;}.cls-13{clip-path:url(#clip-path-2);}.cls-14{fill:#1c1c1b;}.cls-15{fill:#fff;}.cls-16{clip-path:url(#clip-path-3);}</style><clipPath id="clip-path"><path class="cls-1" d="M56.07,0V16.12H29.49ZM.29,58.54A27.69,27.69,0,0,0,28.18,86.29h0A27.86,27.86,0,0,0,56.07,58.54V22.81H.29Z"/></clipPath><clipPath id="clip-path-2"><polygon class="cls-1" points="42.87 18.37 30.95 39.43 9.16 20.4 42.87 18.37"/></clipPath><clipPath id="clip-path-3"><polygon class="cls-1" points="52.58 -1.83 40.67 19.23 18.88 0.2 52.58 -1.83"/></clipPath></defs><g class="cls-2"><g id="Grupo_11" data-name="Grupo 11"><path id="Trazado_84" data-name="Trazado 84" class="cls-3" d="M46.92,23.24H37.19l4.94-11.33Z"/><path id="Trazado_85" data-name="Trazado 85" class="cls-4" d="M8.86,76.85c-1.31-.15-19.46-.44-20.77-11-.87-7.56,8.13-6.25,12.35-1.89,4.21,4.21,6.1,6.24,6.1,6.24s-2.91-2.9-6.83-12,6.68-9.88,8.43-4.22S13.22,67.7,13.22,67.7s-5.81-16.86-2.47-19c6.83-4.64,8,1.89,8.43,7.12.14,2.47,1.3,8.86,1.3,8.86s-.14-9.73,4.36-11.18,8.28,2.18,5.52,7.12C27.89,65.23,18.74,77.86,8.86,76.85Z"/><path id="Trazado_86" data-name="Trazado 86" class="cls-5" d="M37.92,60.58a40.32,40.32,0,0,0,9.44-27.17C45.76,9.15,20.05.15,20.05.15s-3.34,25.85-.87,34C24.84,52.59,37.92,60.58,37.92,60.58Z"/><path id="Trazado_87" data-name="Trazado 87" class="cls-6" d="M24,96.6S-3.34,79.75-6.54,54.33s-3.63-42-3.63-42S19.61,30.51,21.94,62.76,24,96.6,24,96.6Z"/><path id="Trazado_88" data-name="Trazado 88" class="cls-7" d="M41.69-71.47S87.74-49.68,96.6.15C107.79,64.06,58,124.35,58,124.35s-28.76-34-32-70.16S33.27-63.77,41.69-71.47Z"/><path id="Trazado_89" data-name="Trazado 89" class="cls-8" d="M26.73,69.15C27.17,68.86,31.52,46.49,28,16,26.15-.44,12.93-17.72,12.93-17.72S2.18,8.72,2.76,30.22,26.73,69.15,26.73,69.15Z"/><path id="Trazado_90" data-name="Trazado 90" class="cls-9" d="M61.74,20.34c1,.29,11.33,23.68,1.45,41.54s-37.62,39.23-39.37,38.65-4.5-32.4.73-50C30.94,28.76,59.27,19.61,61.74,20.34Z"/><path id="Trazado_91" data-name="Trazado 91" class="cls-10" d="M14,85.56s2.47-18.74,7.69-21.5,8,4.65,6.25,9.16-6.1,14.09-6.1,14.09Z"/><path id="Trazado_92" data-name="Trazado 92" class="cls-7" d="M52.3,80.19c-.58-.29-5.09-8.86-3.78-19.61.73-6.39,4.94-14.38,4.94-14.38a33.81,33.81,0,0,1,5.81,16.12C60,69.87,52.3,80.19,52.3,80.19Z"/><path id="Trazado_94" data-name="Trazado 94" class="cls-7" d="M14.82,42.56s-2.91,11.19-.58,18.16S24.41,72.63,24.41,72.63s0-13.07-2.33-19A33.28,33.28,0,0,0,14.82,42.56Z"/><path id="Trazado_95" data-name="Trazado 95" class="cls-8" d="M13.8,79S7.7,58.83,10,53.17c1.89-4.51,6-4.51,7,1.16C17.72,58.69,13.8,79,13.8,79Z"/><path id="Trazado_96" data-name="Trazado 96" class="cls-11" d="M10.9,44.6S8,23.1,10.17,19c2.18-4.5,4.79-2.91,5.81-.29C17.14,21.94,10.9,44.6,10.9,44.6Z"/><path id="Trazado_97" data-name="Trazado 97" class="cls-11" d="M-3.78,66c5.09,8.43,14.09,19.47,15,18.74.87-.58,1.16-16.41-2.47-24.69C2.91,46.78-12.06,38.79-12.06,38.79A57.16,57.16,0,0,0-3.78,66Z"/><path id="Trazado_98" data-name="Trazado 98" class="cls-12" d="M31.52,37.62s-13.8-3-14.09,0,5.09,3.2,6.25,2.76,2.47-.58,3.78-.87c0,0-10.32,3.93-8.58,6.54C22.66,52.15,31.52,37.62,31.52,37.62Z"/><path id="Trazado_99" data-name="Trazado 99" class="cls-10" d="M53.89,63.77s1.31,9.59-2.47,14.53S44.6,87,44.31,86.43s-1.75-13.51,2.9-19.17C49.25,64.64,53.89,63.77,53.89,63.77Z"/><path id="Trazado_100" data-name="Trazado 100" class="cls-12" d="M7.55,13.22,5.08,34s-3.48-4.5-2.47-12.2C3.05,17.58,7.55,13.22,7.55,13.22Z"/><path id="Trazado_101" data-name="Trazado 101" class="cls-7" d="M31.81,37.62s10-.58,9.88,2.33C41.55,44,31.81,37.62,31.81,37.62Z"/><g id="Grupo_8" data-name="Grupo 8"><g class="cls-13"><g id="Grupo_7" data-name="Grupo 7"><path id="Trazado_103" data-name="Trazado 103" class="cls-14" d="M37.49,19.39a3.69,3.69,0,0,1,0,3.48,4,4,0,0,1-1.31,1.75A4.93,4.93,0,0,1,36,21.71,12.11,12.11,0,0,1,37.49,19.39Z"/><path id="Trazado_104" data-name="Trazado 104" class="cls-14" d="M33.86,22a3.79,3.79,0,0,1-2.76,2.18H28.92a4.53,4.53,0,0,1,2.18-1.89A8.49,8.49,0,0,1,33.86,22Z"/><path id="Trazado_105" data-name="Trazado 105" class="cls-14" d="M33.86,24.62a3.33,3.33,0,0,1,.29,3.48,7.6,7.6,0,0,1-1,1.89,4.93,4.93,0,0,1-.43-2.9A12.21,12.21,0,0,1,33.86,24.62Z"/><path id="Trazado_106" data-name="Trazado 106" class="cls-14" d="M30.81,27.52a3.94,3.94,0,0,1-3,1.74,5.84,5.84,0,0,1-2.18-.43,4.85,4.85,0,0,1,2.47-1.6C28.92,27.38,29.79,27.38,30.81,27.52Z"/><path id="Trazado_107" data-name="Trazado 107" class="cls-14" d="M28.63,20.11a4.28,4.28,0,0,1-1.89,3.05,12.1,12.1,0,0,1-2,.73,4.67,4.67,0,0,1,1.45-2.62A13.36,13.36,0,0,1,28.63,20.11Z"/><path id="Trazado_108" data-name="Trazado 108" class="cls-14" d="M26,25.92a3.55,3.55,0,0,1-3.19,1.46,8,8,0,0,1-2.18-.44,5.81,5.81,0,0,1,2.61-1.45A20.28,20.28,0,0,1,26,25.92Z"/><path id="Trazado_109" data-name="Trazado 109" class="cls-14" d="M27.9,17.93a3.74,3.74,0,0,1-3.48-.58A14.2,14.2,0,0,1,23,15.75a6.52,6.52,0,0,1,2.91.29A8.8,8.8,0,0,1,27.9,17.93Z"/><path id="Trazado_110" data-name="Trazado 110" class="cls-14" d="M33,12.85a4,4,0,0,1-2.47,2.61,10.87,10.87,0,0,1-2.18.29,4.56,4.56,0,0,1,1.89-2.17A17.59,17.59,0,0,1,33,12.85Z"/><path id="Trazado_111" data-name="Trazado 111" class="cls-14" d="M40.69,15.75a3.8,3.8,0,0,1-3.49.59,11.43,11.43,0,0,1-1.89-.88,6.69,6.69,0,0,1,2.91-.72A7.45,7.45,0,0,1,40.69,15.75Z"/><path id="Trazado_112" data-name="Trazado 112" class="cls-14" d="M21.37,17.35A4,4,0,0,1,18,16.19a13.75,13.75,0,0,1-1.16-1.89,4.46,4.46,0,0,1,2.76.87A6.47,6.47,0,0,1,21.37,17.35Z"/><path id="Trazado_113" data-name="Trazado 113" class="cls-14" d="M26.74,11.83a4.1,4.1,0,0,1-3.34,1.31,8.53,8.53,0,0,1-2-.73A4.78,4.78,0,0,1,24,11.25,15.81,15.81,0,0,1,26.74,11.83Z"/><path id="Trazado_114" data-name="Trazado 114" class="cls-14" d="M12.5,24.33a4.25,4.25,0,0,1,1.89,3.05,10.77,10.77,0,0,1-.29,2.17,5,5,0,0,1-1.6-2.46A9.11,9.11,0,0,1,12.5,24.33Z"/><path id="Trazado_115" data-name="Trazado 115" class="cls-14" d="M14.68,33.19a3.88,3.88,0,0,1,3.2,1.59,8.53,8.53,0,0,1,.87,2A5.23,5.23,0,0,1,16,35.66C15.56,34.93,15.12,34.06,14.68,33.19Z"/><path id="Trazado_116" data-name="Trazado 116" class="cls-14" d="M24,39.29a3.53,3.53,0,0,1,3.2-1.45,11.94,11.94,0,0,1,2.18.58,4.52,4.52,0,0,1-2.62,1.3A8.45,8.45,0,0,1,24,39.29Z"/><path id="Trazado_117" data-name="Trazado 117" class="cls-14" d="M33.28,38.56a3.85,3.85,0,0,1,1.89-3.05,11.5,11.5,0,0,1,2-.73,4.73,4.73,0,0,1-1.45,2.62A12.74,12.74,0,0,1,33.28,38.56Z"/><path id="Trazado_118" data-name="Trazado 118" class="cls-14" d="M20.64,24a3.79,3.79,0,0,1-3.49.59,14.28,14.28,0,0,1-2-1,5.11,5.11,0,0,1,2.9-.73A10.21,10.21,0,0,1,20.64,24Z"/><path id="Trazado_119" data-name="Trazado 119" class="cls-14" d="M28.63,35.66a4.33,4.33,0,0,1-3.05-1.89,11.89,11.89,0,0,1-.73-2,4.75,4.75,0,0,1,2.62,1.46A7.57,7.57,0,0,1,28.63,35.66Z"/><path id="Trazado_120" data-name="Trazado 120" class="cls-14" d="M22.82,38.42a3.75,3.75,0,0,1-.44-3.49A12.93,12.93,0,0,1,23.55,33,5.1,5.1,0,0,1,24.13,36C23.69,36.82,23.25,37.69,22.82,38.42Z"/><path id="Trazado_121" data-name="Trazado 121" class="cls-14" d="M37.78,27.38A3.93,3.93,0,0,1,41,25.92a12.8,12.8,0,0,1,2.18.58,4.47,4.47,0,0,1-2.62,1.31A8.45,8.45,0,0,1,37.78,27.38Z"/><path id="Trazado_122" data-name="Trazado 122" class="cls-14" d="M32,35.66a3.86,3.86,0,0,1-1.6-3.2l.44-2.18a5.88,5.88,0,0,1,1.45,2.62A9,9,0,0,1,32,35.66Z"/></g></g></g><path id="Trazado_124" data-name="Trazado 124" class="cls-14" d="M12.64,63.77c.14-.72-.73-1.74-1.45-1.45-.15.15-.29.29-.15.44s.44.43.58.58.29.43.58.58a.28.28,0,0,0,.44-.15Z"/><path id="Trazado_125" data-name="Trazado 125" class="cls-14" d="M9.3,63.19v-.72a.69.69,0,0,0,0-.73c0-.15-.15-.15-.29-.15-.73.15-.73,1.17-.58,1.75,0,.14.29.29.43.29.44,0,.44-.15.44-.44Z"/><path id="Trazado_126" data-name="Trazado 126" class="cls-14" d="M11.48,59.56a1.21,1.21,0,0,0-1.6-.44.53.53,0,0,0-.15.44.15.15,0,0,0,.15.15c.29.29.72.29,1,.58A.47.47,0,0,0,11.48,59.56Z"/><path id="Trazado_127" data-name="Trazado 127" class="cls-14" d="M8.72,60.29a3.14,3.14,0,0,0-.15-1.17c-.14-.14-.29-.29-.43-.14s-.3.29-.3.43a2.59,2.59,0,0,0,.3,1c0,.15.29.29.43.29a.6.6,0,0,0,.15-.43Z"/><path id="Trazado_128" data-name="Trazado 128" class="cls-14" d="M7.12,63.19a1.39,1.39,0,0,0,.43-1.45.28.28,0,0,0-.43-.15.15.15,0,0,0-.15.15c-.14.29-.14.73-.43,1s.29.72.58.43Z"/><path id="Trazado_129" data-name="Trazado 129" class="cls-14" d="M11.33,65.08a2.41,2.41,0,0,0-1-.15c-.29,0-.72.15-.72.59s.29.29.58.29.73-.15,1-.15a.31.31,0,0,0,.29-.29c.14-.14,0-.29-.15-.29Z"/><path id="Trazado_130" data-name="Trazado 130" class="cls-14" d="M8.72,66.1c.14.14-.15,0,0,0l-.29-.29c-.15-.15-.15-.15-.15-.29l-.14-.15H8a.53.53,0,0,0-.44.15v.14h0V66a.31.31,0,0,0,.29.29l.3.29a.45.45,0,0,1,.29.15h.14c.15,0,.29,0,.44-.29-.15,0-.15-.15-.29-.29Z"/><path id="Trazado_131" data-name="Trazado 131" class="cls-14" d="M6.39,65.23a2,2,0,0,0-1.31,0c-.29,0-.43.29-.29.58a.32.32,0,0,0,.29.29H6.39c.15,0,.29-.29.29-.44,0-.43-.14-.43-.29-.43Z"/><path id="Trazado_132" data-name="Trazado 132" class="cls-14" d="M4.65,62.9v-1c0-.14-.29-.29-.44-.29a.32.32,0,0,0-.29.29v1a.47.47,0,0,0,.44.44c.14,0,.29-.15.29-.44Z"/><path id="Trazado_133" data-name="Trazado 133" class="cls-14" d="M6.1,59.85,5.67,59c-.15-.15-.44-.44-.73-.29s-.15.58,0,.72c.14.3.43.59.58.88s.87-.15.58-.44Z"/><path id="Trazado_134" data-name="Trazado 134" class="cls-14" d="M10.31,56.07a2.86,2.86,0,0,0-1.59-.14c-.15,0-.29.29-.29.43s.14.44.29.44a4.74,4.74,0,0,0,1.45.15.47.47,0,0,0,.43-.44c0-.15-.14-.29-.29-.44Z"/><path id="Trazado_135" data-name="Trazado 135" class="cls-14" d="M14,59.12a1.48,1.48,0,0,0-.29-1.3.44.44,0,0,0-.59,0,.53.53,0,0,0-.14.43c0,.15.14.29.14.44s.15.29.15.43a.3.3,0,0,0,.44.29A.31.31,0,0,0,14,59.12Z"/><path id="Trazado_136" data-name="Trazado 136" class="cls-14" d="M14.38,62.32l.44-.29c.14-.15.29-.15.43-.44s0-.29-.14-.43h-.44a.14.14,0,0,0-.14.14l-.44.29c-.14.15-.29.29-.14.44s.29.44.43.29Z"/><path id="Trazado_137" data-name="Trazado 137" class="cls-14" d="M15.83,65.66a3.34,3.34,0,0,0-.43-.73c-.15-.14-.15-.29-.29-.29a.56.56,0,0,0-.44-.14c-.14,0-.29,0-.43.29v.14c0,.15,0,.15.14.3s.15.29.29.29.29.43.44.58,1,0,.72-.44Z"/><path id="Trazado_138" data-name="Trazado 138" class="cls-14" d="M13.22,67.26a6.19,6.19,0,0,0-1.6.14c-.14,0-.29.3-.29.44s.15.15.15.29A1.78,1.78,0,0,0,13.36,68c.15-.15.3-.44.15-.59a.53.53,0,0,0-.29-.14Z"/><path id="Trazado_139" data-name="Trazado 139" class="cls-14" d="M10,69.73a2.06,2.06,0,0,0-.14-1.31C9.73,68,9,68,9.15,68.57a2.33,2.33,0,0,0,.44,1.3.53.53,0,0,0,.43-.14Z"/><path id="Trazado_140" data-name="Trazado 140" class="cls-14" d="M7.7,70a2.57,2.57,0,0,0,.14-1,.46.46,0,0,0-.43-.43c-.15,0-.44.14-.44.29a2.52,2.52,0,0,0-.14,1C6.68,70.46,7.55,70.6,7.7,70Z"/><path id="Trazado_141" data-name="Trazado 141" class="cls-14" d="M5.08,68.57c0-.29-.43-.58-.87-.58a1.64,1.64,0,0,0-1.16.14c-.14,0-.14.15-.14.29v.15a.31.31,0,0,0,.29.29c.29,0,.58.14.87.14s.58.15.87,0c.14-.14.29-.29.14-.43Z"/><path id="Trazado_142" data-name="Trazado 142" class="cls-14" d="M3.05,66a6.75,6.75,0,0,0-.44-1c-.14-.14-.43-.14-.43,0a.52.52,0,0,0-.15.3,1.32,1.32,0,0,0,.44,1,.43.43,0,0,0,.58.15V66Z"/><path id="Trazado_143" data-name="Trazado 143" class="cls-14" d="M2.61,62.17l-.29-.58c-.14-.14-.29-.43-.43-.43H2c-.14-.15-.29,0-.43.14v.15h0V61.3c-.15.29,0,.44.14.58,0,.44,0,.59.15.73s.43.29.58.15a.92.92,0,0,0,.14-.59Z"/><path id="Trazado_144" data-name="Trazado 144" class="cls-14" d="M3.05,59.56c0-.15.15-.29,0-.58a.3.3,0,0,0-.29-.29c-.15,0-.15,0-.15.14v.58c0,.15,0,.3.15.3a.48.48,0,0,0,.29-.15Z"/><path id="Trazado_145" data-name="Trazado 145" class="cls-14" d="M5.52,56.51a.9.9,0,0,0,0-.87c0-.15-.29-.29-.44-.29s-.14.14-.29.29v.87a.56.56,0,0,0,.44.14c.14,0,.14-.14.29-.14Z"/><path id="Trazado_146" data-name="Trazado 146" class="cls-14" d="M8.86,53.75a1.22,1.22,0,0,0-1-1.16.31.31,0,0,0-.29.29.51.51,0,0,0,.15.43c.29.15.44.29.44.58s.87.3.72-.14Z"/><path id="Trazado_147" data-name="Trazado 147" class="cls-14" d="M7.26,57.24c.15-.29.15-.59.29-.88s0-.72-.29-.72-.29.14-.29.43v1c-.29.29.15.44.29.15Z"/><path id="Trazado_148" data-name="Trazado 148" class="cls-14" d="M14,54.91a1.66,1.66,0,0,0-1.17-.43c-.29,0-.87,0-1,.43s.43.44.72.44H13.8c.15,0,.15-.15.15-.44Z"/><path id="Trazado_149" data-name="Trazado 149" class="cls-14" d="M12.35,52.3c-.44-.29-1.45-.15-1.45.58,0,.14,0,.14.14.14a.64.64,0,0,0,.73,0c.29,0,.43-.14.72-.29,0,.15,0-.14-.14-.43Z"/><path id="Trazado_150" data-name="Trazado 150" class="cls-14" d="M10.17,54.91c.14,0,.29-.29.29-.43s0-.29-.15-.29c0-.15-.14-.15-.29-.15s-.29,0-.29.15v.29a.14.14,0,0,0,.15.14v.15c-.15.14-.15.29,0,.29s.29,0,.29-.15Z"/><path id="Trazado_151" data-name="Trazado 151" class="cls-14" d="M5.67,53.75A1.6,1.6,0,0,0,6.1,52.3C6,52,5.52,52,5.52,52.3a2.76,2.76,0,0,1-.29,1,.27.27,0,0,0,0,.44Z"/><path id="Trazado_152" data-name="Trazado 152" class="cls-14" d="M3.63,57.24a1.18,1.18,0,0,0-1.45-.73h.14a.53.53,0,0,0-.43.14.21.21,0,0,0,0,.3.14.14,0,0,0,.14.14l.15.15.14.14c.15,0,.15.15.29.15.3.14.59.14.88.29,0-.29.29-.29.14-.58Z"/><path id="Trazado_153" data-name="Trazado 153" class="cls-14" d="M3.2,54.33a.89.89,0,0,0,.14-1,.53.53,0,0,0-.43-.14.31.31,0,0,0-.3.29v.29h0v.14c-.14.15,0,.3.15.44a.27.27,0,0,0,.44,0Z"/><path id="Trazado_154" data-name="Trazado 154" class="cls-14" d="M1.16,58c-.43-.29-1.16-.72-1.6-.14a.27.27,0,0,0,0,.43.15.15,0,0,1,.15.15c.29.14.58,0,.87.29a.45.45,0,0,0,.58,0,.64.64,0,0,0,0-.73Z"/><path id="Trazado_155" data-name="Trazado 155" class="cls-14" d="M0,61.88c.15-.14.15-.29.29-.43V61c-.14-.29-.58-.72-.87-.43-.15,0-.15.14-.15.29s.15.29.29.43a.15.15,0,0,0,.15.15v.14h0c-.29.29.14.58.29.29Z"/><path id="Trazado_156" data-name="Trazado 156" class="cls-14" d="M.73,64.64a3.12,3.12,0,0,0-.15-1.16c0-.14-.29-.29-.43-.29a.32.32,0,0,0-.3.29A3.07,3.07,0,0,0,0,64.64c0,.15.29.29.44.29S.73,64.79.73,64.64Z"/><path id="Trazado_157" data-name="Trazado 157" class="cls-14" d="M.44,67.26a3.54,3.54,0,0,0-1-.58c-.29,0-.87,0-1,.29s.29.43.58.43h.73c.29,0,.44.15.58.15s.29,0,.29-.15a.14.14,0,0,1-.14-.14Z"/><path id="Trazado_158" data-name="Trazado 158" class="cls-14" d="M1.31,70.46a7,7,0,0,1,.43-1c0-.15,0-.44-.29-.44-.14,0-.29,0-.43.29a2.1,2.1,0,0,0-.15,1,.28.28,0,0,0,.44.15Z"/><path id="Trazado_159" data-name="Trazado 159" class="cls-14" d="M3.78,70.46c-.44-.15-1-.15-1.17.29V71h0c.3.14.59,0,.88,0s.72-.44.29-.58Z"/><path id="Trazado_160" data-name="Trazado 160" class="cls-14" d="M6,71.47v-.72a.88.88,0,0,0-.15-.59H5.67c-.15.15-.15.3-.15.59v.72a.15.15,0,0,0,.15.15c.14,0,.29,0,.29-.15Z"/><path id="Trazado_161" data-name="Trazado 161" class="cls-14" d="M8.86,71.91a1.9,1.9,0,0,0-.87.14c-.15.15-.44.29-.44.58s.44.15.73.15A3.33,3.33,0,0,1,9,72.34v-.43Z"/><path id="Trazado_162" data-name="Trazado 162" class="cls-14" d="M11.91,70.75c-.14.14-.29.29-.43.29s-.29.14-.44.29v.14a.65.65,0,0,0,.73.15c.14-.15.43-.29.58-.44s-.15-.87-.44-.43Z"/><path id="Trazado_163" data-name="Trazado 163" class="cls-14" d="M14.67,69.73a1.94,1.94,0,0,0,.58-.44,1,1,0,0,0,.15-.87c0-.14-.29-.29-.44-.29-.14.15-.29.15-.29.29s0,.58-.29.87a.56.56,0,0,0-.14.44c0,.14.29.14.43,0Z"/><path id="Trazado_164" data-name="Trazado 164" class="cls-14" d="M18.16,68.28c-.15-.58-.29-1.17-1-1.17-.14,0-.14,0-.14.15v.14c.14.15.14.3.29.59s.29.29.29.43C17.87,68.57,18.16,68.42,18.16,68.28Z"/><path id="Trazado_165" data-name="Trazado 165" class="cls-14" d="M18.88,63.63a3.07,3.07,0,0,0-1.16-.15,1.37,1.37,0,0,0-1,.29c-.15.15-.15.15,0,.29a1.22,1.22,0,0,0,1,.29,2.91,2.91,0,0,0,1.16-.14c.15,0,.3-.15.15-.44.15,0,0,0-.15-.14Z"/><path id="Trazado_166" data-name="Trazado 166" class="cls-14" d="M16.85,61.88c.29-.29.73-.72.58-1.16a.53.53,0,0,0-.43-.14s-.15,0-.15.14-.14.58-.29.87C16.27,61.59,16.56,62,16.85,61.88Z"/><path id="Trazado_167" data-name="Trazado 167" class="cls-14" d="M18.88,58.11A1.74,1.74,0,0,0,17.58,57a.3.3,0,0,0-.29.29v.14c.14.15.29.44.58.58.14.15.43.29.58.44a.28.28,0,0,0,.43-.15v-.14Z"/><path id="Trazado_168" data-name="Trazado 168" class="cls-14" d="M16.12,59.41c0-.29-.14-.58-.14-.87a.47.47,0,0,0-.44-.43c-.29,0-.29.43-.29.58a2.44,2.44,0,0,0,.15,1,.27.27,0,0,0,.43.14C16,59.71,16.12,59.56,16.12,59.41Z"/><path id="Trazado_169" data-name="Trazado 169" class="cls-14" d="M17.14,54a3.1,3.1,0,0,0-1.6,1.16v.29h.15a3.2,3.2,0,0,0,1.74-.87c.29-.43-.14-.73-.29-.58Z"/><path id="Trazado_170" data-name="Trazado 170" class="cls-14" d="M15,56.36c-.14-.14-.29-.14-.58-.14s-.29.14-.43.29v.14c.14.15.14.15.29.15s.14,0,.29.15A.28.28,0,0,0,15,56.8c.15-.15.15-.44,0-.44Z"/><path id="Trazado_171" data-name="Trazado 171" class="cls-14" d="M15.54,52.15a.73.73,0,0,1-.58.29.31.31,0,0,0-.29.44.65.65,0,0,0,.73.14,2.07,2.07,0,0,0,.58-.43c.14-.15.14-.44,0-.44a.28.28,0,0,0-.44,0Z"/><path id="Trazado_172" data-name="Trazado 172" class="cls-14" d="M14.38,50.55a2.14,2.14,0,0,0-1.31-.87c-.43,0-.43.44-.14.58s.73.29,1.16.58c0,.29.44,0,.29-.29Z"/><path id="Trazado_173" data-name="Trazado 173" class="cls-14" d="M11,50.41c-.14-.44-.44-1.16-1-1a.32.32,0,0,0-.29.29V50c0,.15.15.15.15.29s.29.29.29.44a.68.68,0,0,0,.73,0c.14,0,.14-.15.14-.29Z"/><path id="Trazado_174" data-name="Trazado 174" class="cls-14" d="M7.7,50.55a.79.79,0,0,0-.44-.72c-.14-.15-.58-.29-.72-.15-.29.15,0,.44.29.58a2.08,2.08,0,0,1,.58.44c0,.14.14.14.29.14a.2.2,0,0,1,0-.29Z"/><path id="Trazado_175" data-name="Trazado 175" class="cls-14" d="M4.94,50.41l-.29-.29c-.15-.15-.29-.15-.44-.29s-.43.14-.29.29,0,.14.15.29l.14.14.29.29a.27.27,0,0,0,.44,0v-.43Z"/><path id="Trazado_176" data-name="Trazado 176" class="cls-14" d="M2.47,51.42c-.44-.14-1.31-.14-1.45.3v.14a.63.63,0,0,0,.72.15,1.16,1.16,0,0,0,.73-.29c.14,0,.14-.15,0-.3Z"/><path id="Trazado_177" data-name="Trazado 177" class="cls-14" d="M1.16,54.19a1.39,1.39,0,0,0-1.31-.3c-.14,0-.14.15-.14.3.14.43.87.43,1.31.58a.31.31,0,0,0,.14-.58Z"/><path id="Trazado_192" data-name="Trazado 192" class="cls-15" d="M33.41,63.92a5.14,5.14,0,0,0,.58-1.6.62.62,0,0,0-.58-.58,1.1,1.1,0,0,0-.58.29,5.14,5.14,0,0,0-.58,1.6.54.54,0,0,0,.44.72A.48.48,0,0,0,33.41,63.92Z"/><path id="Trazado_193" data-name="Trazado 193" class="cls-15" d="M40,57a3.32,3.32,0,0,0,.73-1.17c.14-.29.29-1-.15-1.16s-.58.15-.73.44a6,6,0,0,1-.58,1.45C39.22,56.8,39.66,57.24,40,57Z"/><path id="Trazado_194" data-name="Trazado 194" class="cls-15" d="M45.61,55.06a1.19,1.19,0,0,0,.59-.58v-.59a.32.32,0,0,0-.3-.29.27.27,0,0,0-.43,0c0,.15-.15.29,0,.44v.44c-.15.14-.29.29-.15.43C45.18,55.06,45.32,55.2,45.61,55.06Z"/><path id="Trazado_195" data-name="Trazado 195" class="cls-15" d="M36.9,65.52a2.93,2.93,0,0,0,1.45-1.75c0-.29-.14-.43-.43-.58-.15,0-.3,0-.3.15a10.05,10.05,0,0,1-1.16,1.3C35.88,65.08,36.32,65.81,36.9,65.52Z"/><path id="Trazado_196" data-name="Trazado 196" class="cls-15" d="M30.22,60.29h0a.44.44,0,0,0-.59,0l-.14.14a.89.89,0,0,0-.15.87c0,.29.15.58.15.87s.44.59.73.44.58-.44.43-.73c0-.29-.14-.58-.14-.87A1.11,1.11,0,0,0,30.22,60.29Z"/><path id="Trazado_197" data-name="Trazado 197" class="cls-15" d="M47.5,52.59c.29.29.58.29,1,.43a1.55,1.55,0,0,0,1.16,0c.29,0,.44-.29.44-.58s0-.14-.15-.29a1.63,1.63,0,0,0-1.16-.43L47.65,52c-.15.14-.15.14-.15.29S47.36,52.59,47.5,52.59Z"/><path id="Trazado_198" data-name="Trazado 198" class="cls-15" d="M32.83,58.11a1.06,1.06,0,0,0,0-1.46c-.14,0-.29,0-.29.15s-.15.29-.15.58a.56.56,0,0,1-.14.44c-.15.14,0,.29.14.43A.55.55,0,0,0,32.83,58.11Z"/><path id="Trazado_199" data-name="Trazado 199" class="cls-15" d="M43,55.78a.81.81,0,0,0-.73.44.54.54,0,0,0,.29.73,5.24,5.24,0,0,0,2,.87c.29.14.58-.15.72-.44a.53.53,0,0,0-.29-.73A8.69,8.69,0,0,0,43,55.78Z"/><path id="Trazado_200" data-name="Trazado 200" class="cls-15" d="M37.19,60.14c-.15-.43-.15-1-.29-1.45s-.44-.87-.87-.87-.44.72-.44,1c.15.58.29,1,.44,1.46A.59.59,0,0,0,37.19,60.14Z"/><path id="Trazado_201" data-name="Trazado 201" class="cls-15" d="M50.84,56.8a4.06,4.06,0,0,0-1.59-1.16c-.44-.15-1.31-.58-1.6,0s.43.87.87,1a8.16,8.16,0,0,0,2,.59A.39.39,0,0,0,51,56.8C51,57,51,56.8,50.84,56.8Z"/><path id="Trazado_202" data-name="Trazado 202" class="cls-15" d="M43,60.87c-.29,0-.44.29-.44.58,0,.14,0,.14.15.14.43.44,1,.73,1.31,1.31a.69.69,0,0,0,.87.29.7.7,0,0,0,.29-.87A2.23,2.23,0,0,0,43,60.87Z"/><path id="Trazado_203" data-name="Trazado 203" class="cls-15" d="M40.38,59.85a.79.79,0,0,0-.72.44,3,3,0,0,0-.15,1.59.63.63,0,0,0,.58.59c.29,0,.44-.15.59-.44A3.68,3.68,0,0,0,41,60.29C40.82,60.14,40.68,59.85,40.38,59.85Z"/><path id="Trazado_204" data-name="Trazado 204" class="cls-15" d="M41,64.64c0-.14-.15-.29-.29-.43-1.17-.29-1.75,1.45-1.75,2.32a.58.58,0,0,0,1.16,0,1.56,1.56,0,0,1,.44-1A.9.9,0,0,0,41,64.64Z"/><path id="Trazado_205" data-name="Trazado 205" class="cls-15" d="M47.94,61.16v.72a1.29,1.29,0,0,1-.15.73c-.14.29.15.58.44.73a.54.54,0,0,0,.73-.29,2.47,2.47,0,0,0,.14-2,.7.7,0,0,0-.87-.29C48.08,60.72,47.94,60.87,47.94,61.16Z"/><path id="Trazado_206" data-name="Trazado 206" class="cls-11" d="M3.49,48.23s0-10-2.18-14.53a21.33,21.33,0,0,0-5.67-6.83,32.36,32.36,0,0,0,.87,11.77C-2,44.16,3.49,48.23,3.49,48.23Z"/><rect id="Rectángulo_10" data-name="Rectángulo 10" class="cls-12" x="26.73" y="-2.18" width="36.9" height="20.05"/><path id="Trazado_207" data-name="Trazado 207" class="cls-7" d="M59.85,43.29c-5.66.44-19.76-1.16-21.35-7.84-.73-3.2,1.3-6.69,9.73-5.38a63.66,63.66,0,0,0,14.82.87s-25.57-1.89-23-10.46C42.56,12.35,63.92,27.17,64.5,26S43.58,17.14,46.05,11.19C50.12.87,66.39,21.5,67.11,20.63S51.57,7.41,55.35,2.76C62-5.52,69.15,3.2,76.56,20.05c1.3,2.9,6,16.12,6,16.12S65.23,42.85,59.85,43.29Z"/><g id="Grupo_10" data-name="Grupo 10"><g class="cls-16"><g id="Grupo_9" data-name="Grupo 9"><path id="Trazado_208" data-name="Trazado 208" class="cls-14" d="M47.21-.82a3.71,3.71,0,0,1,0,3.49A3.91,3.91,0,0,1,45.9,4.41a4.9,4.9,0,0,1-.15-2.9A13.09,13.09,0,0,1,47.21-.82Z"/><path id="Trazado_209" data-name="Trazado 209" class="cls-14" d="M43.57,1.8A3.77,3.77,0,0,1,40.81,4H38.64a4.51,4.51,0,0,1,2.17-1.89A8.55,8.55,0,0,1,43.57,1.8Z"/><path id="Trazado_210" data-name="Trazado 210" class="cls-14" d="M43.57,4.41a3.35,3.35,0,0,1,.3,3.49,8.31,8.31,0,0,1-1,1.89,5,5,0,0,1-.44-2.91A13.36,13.36,0,0,1,43.57,4.41Z"/><path id="Trazado_211" data-name="Trazado 211" class="cls-14" d="M40.52,7.32a3.91,3.91,0,0,1-3.05,1.74,5.87,5.87,0,0,1-2.18-.43A4.94,4.94,0,0,1,37.76,7C38.64,7.17,39.51,7.17,40.52,7.32Z"/><path id="Trazado_212" data-name="Trazado 212" class="cls-14" d="M38.35-.09A4.33,4.33,0,0,1,36.46,3a11.89,11.89,0,0,1-2,.73,4.75,4.75,0,0,1,1.46-2.62A12.78,12.78,0,0,1,38.35-.09Z"/><path id="Trazado_213" data-name="Trazado 213" class="cls-14" d="M35.58,5.72a3.51,3.51,0,0,1-3.19,1.45,8.56,8.56,0,0,1-2-.43,6.19,6.19,0,0,1,2.46-1.46A8.45,8.45,0,0,1,35.58,5.72Z"/><path id="Trazado_219" data-name="Trazado 219" class="cls-14" d="M22.22,4.12a4.32,4.32,0,0,1,1.89,3.05,11.53,11.53,0,0,1-.29,2.18,4.85,4.85,0,0,1-1.6-2.47A8.51,8.51,0,0,1,22.22,4.12Z"/><path id="Trazado_220" data-name="Trazado 220" class="cls-14" d="M24.4,13a3.89,3.89,0,0,1,3.2,1.6,8.77,8.77,0,0,1,.87,2,5.16,5.16,0,0,1-2.76-1.17C25.27,14.73,24.84,13.86,24.4,13Z"/><path id="Trazado_221" data-name="Trazado 221" class="cls-14" d="M33.7,19.09a3.55,3.55,0,0,1,3.19-1.46,12.33,12.33,0,0,1,2.18.58,4.45,4.45,0,0,1-2.61,1.31A8.45,8.45,0,0,1,33.7,19.09Z"/><path id="Trazado_222" data-name="Trazado 222" class="cls-14" d="M43,18.36a3.89,3.89,0,0,1,1.89-3,11.89,11.89,0,0,1,2-.73,4.75,4.75,0,0,1-1.46,2.62A9.78,9.78,0,0,1,43,18.36Z"/><path id="Trazado_223" data-name="Trazado 223" class="cls-14" d="M30.36,3.83a3.76,3.76,0,0,1-3.49.58,13.22,13.22,0,0,1-2-1,5.09,5.09,0,0,1,2.9-.73A10.52,10.52,0,0,1,30.36,3.83Z"/><path id="Trazado_224" data-name="Trazado 224" class="cls-14" d="M38.35,15.45a4.31,4.31,0,0,1-3.06-1.88,11.05,11.05,0,0,1-.72-2A4.77,4.77,0,0,1,37.18,13,8,8,0,0,1,38.35,15.45Z"/><path id="Trazado_225" data-name="Trazado 225" class="cls-14" d="M32.53,18.21a3.72,3.72,0,0,1-.43-3.48,12.84,12.84,0,0,1,1.16-1.89,4.92,4.92,0,0,1,.58,2.9C33.41,16.62,33,17.49,32.53,18.21Z"/><path id="Trazado_226" data-name="Trazado 226" class="cls-14" d="M47.5,7.17a3.92,3.92,0,0,1,3.19-1.45,12.33,12.33,0,0,1,2.18.58,4.51,4.51,0,0,1-2.61,1.31A8.45,8.45,0,0,1,47.5,7.17Z"/><path id="Trazado_227" data-name="Trazado 227" class="cls-14" d="M41.69,15.45a3.83,3.83,0,0,1-1.6-3.19l.43-2.18A5.82,5.82,0,0,1,42,12.69,8.92,8.92,0,0,1,41.69,15.45Z"/></g></g></g></g></g></svg>